<?xml version="1.0" encoding="utf-8"?>
<!-- Generator: Adobe Illustrator 16.0.0, SVG Export Plug-In . SVG Version: 6.00 Build 0)  -->
<!DOCTYPE svg PUBLIC "-//W3C//DTD SVG 1.1//EN" "http://www.w3.org/Graphics/SVG/1.1/DTD/svg11.dtd">
<svg version="1.1" id="Layer_1" xmlns="http://www.w3.org/2000/svg" xmlns:xlink="http://www.w3.org/1999/xlink" x="0px" y="0px"
	 width="120px" height="32px" viewBox="0 0 120 32" enable-background="new 0 0 120 32" xml:space="preserve">
<g>
	<path fill-rule="evenodd" clip-rule="evenodd" fill="#00A28B" d="M27.542,12.39c-0.398,1.115-0.995,2.057-0.996,3
		c-0.001,0.9,0.617,1.803,1.065,2.972c-0.829,0-1.246,0-1.664,0c-5.1-0.001-10.199,0-15.299-0.003
		c-1.534-0.001-1.683-0.103-1.86-1.589c-0.1-0.846-0.081-1.707-0.12-2.56c-0.043-0.965,0.418-1.449,1.38-1.479
		c1.245-0.039,2.489-0.102,3.734-0.131c4.125-0.097,8.25-0.186,12.375-0.271C26.499,12.322,26.839,12.357,27.542,12.39z"/>
	<path fill-rule="evenodd" clip-rule="evenodd" fill="#99BC44" d="M27.198,5.488c-0.375,1.542-0.769,3.023-1.07,4.524
		c-0.048,0.239,0.317,0.562,0.562,0.96c-0.426,0.03-0.907,0.085-1.388,0.095c-4.909,0.1-9.817,0.199-14.726,0.283
		c-1.369,0.023-1.565-0.175-1.503-1.554c0.045-1.01,0.047-2.051,0.315-3.009c0.142-0.509,0.803-1.238,1.239-1.245
		C16.189,5.459,21.753,5.488,27.198,5.488z"/>
	<path fill-rule="evenodd" clip-rule="evenodd" fill="#2058A8" d="M26.635,25.093c-5.126,0-10.416-0.002-15.706,0.005
		c-0.845,0-1.331-0.394-1.403-1.227c-0.081-0.928-0.145-1.86-0.153-2.79c-0.006-0.831,0.411-1.275,1.302-1.274
		c5.367,0.014,10.734,0.007,15.972,0.007c-0.273,0.904-0.74,1.781-0.748,2.663C25.894,23.328,26.36,24.185,26.635,25.093z"/>
</g>
<text transform="matrix(1 0 0 1 31.6753 22.5039)"><tspan x="0" y="0" fill="#2058A8" font-family="'Nunito-Bold'" font-size="25.7417">neu</tspan><tspan x="43.631" y="0" fill="#00A28B" font-family="'Nunito-Bold'" font-size="25.7417">log</tspan></text>
</svg>
